<?xml version="1.0" encoding="UTF-8" standalone="no"?>
<svg
   xmlns:dc="http://purl.org/dc/elements/1.1/"
   xmlns:cc="http://creativecommons.org/ns#"
   xmlns:rdf="http://www.w3.org/1999/02/22-rdf-syntax-ns#"
   xmlns:svg="http://www.w3.org/2000/svg"
   xmlns="http://www.w3.org/2000/svg"
   viewBox="0 0 1152.2667 485.33334"
   height="485.33334"
   width="1152.2667"
   xml:space="preserve"
   id="svg2"
   version="1.1"><metadata
     id="metadata8"><rdf:RDF><cc:Work
         rdf:about=""><dc:format>image/svg+xml</dc:format><dc:type
           rdf:resource="http://purl.org/dc/dcmitype/StillImage" /></cc:Work></rdf:RDF></metadata><defs
     id="defs6" /><g
     transform="matrix(1.3333333,0,0,-1.3333333,0,485.33333)"
     id="g10"><g
       transform="scale(0.1)"
       id="g12"><path
         id="path14"
         style="fill:#0099ff;fill-opacity:1;fill-rule:nonzero;stroke:none"
         d="m 5306.31,704.469 c -12.09,-15.469 -31.21,-24.258 -39.43,-43.547 -1.96,-4.594 -10.53,-6.512 -16.25,-9.262 -22.68,-10.84 -35.3,-32.191 -50.43,-50.301 -11.55,-13.781 -25.57,-23.82 -38.81,-35.05 -10.67,-9.047 -22.35,-13.789 -33.91,-0.879 -3.81,4.308 -10.13,1.621 -15.56,5.679 23.2,29.61 49.6,52.661 81.5,72.539 26.33,16.391 55.86,31.481 74.06,60.411 10.28,16.332 28.91,26.722 37.56,45.429 2.48,5.313 5.31,4.371 10.66,-1.679 18.19,-20.489 1.1,-29.879 -9.39,-43.34 M 4793.69,363.898 c -9.33,-22.136 -19.2,-43.957 -44.04,-53.429 -2.44,-0.938 -4.61,-2.699 -6.68,-4.321 -4.43,-3.5 -4.02,-13.668 -13.63,-9.937 -8.81,3.461 -10.28,11.437 -11.45,19.41 -0.39,2.641 -0.33,5.328 -0.56,10.367 4.02,13.934 3.53,30.672 4.98,47.211 0.8,9.301 7.55,7.731 11.25,4.653 16.68,-13.891 34.47,-10.762 52.73,-5.18 9.55,2.93 10.51,-1.461 7.4,-8.774 m 662.95,499.161 c -5.98,-11.399 -14.35,-19.231 -29.57,-29.348 -5.21,-3.5 -11.31,-7.313 -13.1,-13.77 -7.72,-27.769 -31.62,-42.441 -49.48,-62.031 -2.52,-2.719 -6.07,-7.269 -10.31,-3.539 -5.37,4.75 0.04,8.359 2.87,11.719 3.4,4 7.64,7.359 10.65,11.66 6.62,9.449 11.75,18.789 0.64,29.379 -8.73,8.32 -4.63,15.133 4.47,21.051 15.08,9.89 24.12,22.898 29.96,37.769 -134.59,7.09 -264.78,12.903 -391.61,17.461 21.89,-22.93 30.44,-48.281 20.81,-79.019 -1.73,-5.563 -4.51,-11.442 -2.55,-17.172 8.84,-25.86 -4.46,-46.578 -15.28,-67.789 -6.33,-12.442 -9.78,-25.719 -14.49,-38.629 -7.46,-20.473 -17.5,-40.723 -37.15,-52.949 -10.51,-6.543 -16.33,-17.071 -22.52,-26.332 -13.3,-19.821 -25.68,-40.122 -40.02,-59.372 -10.47,-14.089 -17.01,-31.937 -21.78,-49.109 -3.67,-13.277 -11.01,-20.168 -22.79,-20.211 -20.02,-0.098 -35.92,-8.316 -50.97,-19.976 -4.59,-3.582 -9.09,-7.582 -15.18,-8.481 -8.2,-1.191 -19.16,-7.832 -16.47,10.367 0.67,4.59 -5.29,11.66 -11.52,13.75 -6.21,2.024 -8.98,-3.429 -12.42,-7.707 -13.24,-16.269 -24.04,-17.351 -42.36,-5.633 -5.3,3.364 -11.06,5.961 -17.56,7.211 -23.4,4.469 -34.94,24.2 -28.01,47.25 1.76,5.801 2.68,11.621 0.1,17.18 -3.32,7.152 -5.9,14.242 -0.98,23.52 -7.38,-1.368 -12.38,-2.297 -20.33,-3.77 8.05,10.313 8.71,20.199 7.6,30.25 -0.26,2.41 -1.47,5.731 -3.27,6.68 -3.82,2 -5.39,-2.09 -7.14,-4.469 -4.95,-6.801 -6.2,-17.77 -15.49,-16.762 3.83,24.653 27.42,41.121 26.76,68.852 -16.14,-17.789 -36.98,-29.57 -52.72,-47.211 -3.44,-3.84 -7.38,-11.52 -13.51,-9.039 -5.65,2.308 -1.12,9.648 -2.06,14.648 -2.16,11.782 -0.41,24.864 -11.81,33.383 -5.94,4.43 -0.14,11.891 -5.14,17.559 -9.14,10.41 -21.01,13.73 -33.44,16.601 -3,0.68 -7.11,-0.492 -9.14,1.129 -28.81,23.07 -59.53,13.668 -89.55,4.59 -17.3,-5.23 -33.42,-14.18 -52.48,-8.441 -5.99,1.82 -11.37,-1.707 -16.27,-5.129 -7.95,-5.571 -16.58,-9.508 -26.33,-10.961 -6.56,-0.938 -13.2,-3.481 -16.01,-9.449 -9.61,-20.372 -28.34,-21.661 -44.96,-17.372 -35.72,9.204 -65.54,-4.468 -94.82,-20.168 -26.78,-14.3 -53.93,-0.199 -68.53,21.598 -3.87,5.82 -1.82,11.41 4.25,16.563 17.93,15.039 19.71,35.961 15.97,56.8 -3.01,16.848 -7.79,33.18 -3.92,50.43 1.25,5.559 -1.14,10.348 -2.8,15.43 -5.08,15.508 -13.57,29.918 -11.24,47.597 1.55,11.774 -10.92,18.922 -14.84,31.231 6.25,-1.801 10.25,-10.02 10.95,-7.27 2.03,7.911 17.99,5.981 12.25,16.469 -9.98,18.274 -12.44,36.113 -8.64,54.082 C 3682.08,888.109 3262.14,865.23 2801.61,826.328 3124.6,329.41 3684.62,0.109375 4320.14,0.109375 c 640.96,0 1205.13,334.949625 1526.79,838.960625 -134.55,9.11 -264.36,17.102 -390.29,23.989" /><path
         id="path16"
         style="fill:#0099ff;fill-opacity:1;fill-rule:nonzero;stroke:none"
         d="m 4863.85,3185.92 c -7.71,0.33 -13.07,-2.66 -15.39,-9.55 -4.18,-12.46 -12.66,-12.75 -21.5,-7.07 -14.36,9.26 -28.81,10.68 -44.67,5.25 -2.8,-0.95 -6.99,0.78 -7.99,-3.32 -1.21,-5 3.16,-6.52 6.64,-8.3 4.67,-2.34 9.39,-4.61 15.94,-7.79 -21.43,-15.84 -25.53,7.67 -33.17,15.08 -5.64,5.43 3.19,17.09 14.59,18.47 6.6,0.84 6.33,3.79 5.37,9.46 -2.65,15.33 -3.49,31.11 -19.9,44.35 15.59,0.39 24.1,-5.78 33.19,-11.6 18.69,-11.91 36.93,-24.22 61.54,-21.35 10.23,1.17 13.89,-14.51 26.8,-14.61 -7.11,-8.38 -14.34,-9.29 -21.45,-9.02 m -5.35,-226.37 c -9.98,-3.92 -5.65,7.15 -8.54,10.88 -9.45,12.35 -11.66,-2.26 -16.34,-5.35 -4.3,-2.85 -3.25,-16.82 -13.46,-5.29 -0.65,0.72 -4.63,-0.04 -5.31,-1.17 -10.16,-16.66 -23.71,-8.42 -36.53,-5.22 -3.55,0.92 -7.01,5.06 -10.58,0.94 -3.21,-3.62 -0.14,-6.82 1.05,-10.61 4.02,-12.6 -4.16,-22.5 -13.4,-26.15 -10.95,-4.32 -16.29,6.68 -17.67,16.07 -2.91,19.83 -13.44,20.4 -27.54,11.88 -7.62,-4.63 -16.06,-8.13 -24.14,-7.56 -17.89,1.25 -31.23,-12.5 -48.32,-12.69 -3.21,-0.04 -7.44,-0.94 -6.55,-5.26 0.59,-2.75 3.32,-5.72 5.88,-7.19 15.86,-9.02 28.52,-46.75 19.22,-60.09 -3.03,-4.4 -8.03,-5.34 -13.92,-1.88 -2.46,1.45 -7.76,-1.91 -12.74,-3.38 -5.23,7.89 -7.3,18.75 -4.96,32.19 1.35,7.75 2.83,26.99 -17.5,15.27 -2.71,-1.6 -5.6,-0.62 -6.23,2.21 -0.51,2.11 0.41,6.35 1.74,6.84 17.67,6.44 23.89,24.29 34.22,36.91 24.74,30.43 57.48,32.58 91.66,33.05 9.02,0.13 14.57,2.42 13.02,12.13 -1.91,12.18 12.54,21.34 5.32,34.55 13.14,-13.89 30.41,-13.28 43.36,2.85 15,18.67 23.57,57.97 8.88,77.34 -5.8,7.66 -14.86,20.78 -4.78,27.72 6.42,4.41 21.25,-0.08 29.98,-8.5 14.84,-14.33 37.64,-27.67 27.07,-51.31 -9.06,-20.27 0.06,-34.76 2.93,-52.24 2.13,-12.97 2.15,-25.37 10.35,-36.94 4.94,-6.93 1.91,-16.83 -6.17,-20 m -210.29,444.79 c -2.06,4.53 -9.38,8.14 -5.36,13.87 6.96,-1.41 13.87,-2.95 20.8,-4.46 24.61,-28.47 60.28,-44.18 88.97,-75.74 -19.86,4.61 -20.27,-2.71 -17.5,-15.29 5.18,-23.52 27.11,-30.65 44.02,-47.23 -11.31,2.48 -21.44,5.63 -20.52,-12.27 -22.07,41.66 -46.61,76.33 -73.34,109.79 -10.57,13.26 -29.77,15.18 -37.07,31.33 M 4320.14,3640 c -632.6,0 -1190.34,-326.31 -1514.02,-819.37 73.53,-5.47 147.16,-10.57 220.88,-15.14 296.07,391.53 765.54,645.04 1293.14,645.04 51.03,0 101.5,-2.5 151.35,-7.13 -2.85,-1.62 -5.45,-3.55 -3.66,-7.71 2.15,-5.02 8.01,-3.83 12.37,-3.87 11.52,-0.06 21.35,-0.26 32.81,-7.46 9.79,-6.14 26.05,-11.82 40.06,-4.32 28.79,15.53 82.42,-4.98 91.41,-36.54 4.45,-15.71 11.13,-28.95 22.03,-40.98 5,-5.53 10.62,-15.04 9.14,-21.07 -5.73,-23.34 -6.68,-48.36 -18.52,-69.71 -10.43,-18.87 -23.65,-36.23 -35.7,-54.2 -12.93,-19.28 -29.81,-24.2 -50.69,-13.75 -7.38,3.69 -14,5.29 -19.55,-1.19 -7.81,-9.22 -18,-15.29 -26.99,-22.97 -8.49,-7.21 -13.96,-15.7 -7.56,-27.54 3.95,-7.34 2.09,-13.83 -4.47,-19.22 -8.05,-6.56 -14.49,-14.76 -23.75,-20.27 -10.92,-6.58 -11.72,-19.26 -0.78,-23.38 25.23,-9.43 37.28,-32.58 56.6,-47.91 13.07,-10.33 18.91,-25.02 22.89,-40.51 3.48,-13.61 -1.11,-22.4 -15.6,-26.72 -10.39,-3.08 -22.29,-0.35 -31.55,-9.47 -3.59,-3.55 -11.36,-8.42 -17.79,-3.01 -6.23,5.24 -10.47,12.13 -8.13,20.9 2.33,8.65 0.43,15.98 -3.12,24.24 -2.01,4.61 -22.75,12.58 -0.39,18.69 0.1,0.04 -0.18,5.67 -1.7,6.76 -11.58,8.42 -18.79,25.21 -38.69,17.69 -10.65,-4.04 -17.89,2.5 -15.16,14.32 2.19,9.59 -5,19.06 0.78,28.46 1.27,2.03 0.2,6.42 -2.98,5.9 -13.72,-2.29 -24.81,9.23 -40.04,4.59 -20.73,-6.29 -38.85,-15.08 -52.87,-30.8 -8.07,13.77 -5.51,25.41 0.6,39.43 5.23,12.01 -7.81,17.81 -19.02,17.87 -8.6,0.04 -15.3,-4.96 -21.7,-11.7 -17.33,-18.2 -29.59,-42.36 -58.11,-47.87 -11.21,-2.19 -12.52,-17.07 -3.45,-24.92 4.92,-4.26 10.44,-7.93 15.07,-12.52 20.47,-20.24 35.45,-20.9 56.04,-1.82 4.08,3.77 8.89,7.39 13.96,5.96 14.61,-4.04 29.03,-7.29 44.4,-4.75 4.29,0.71 7.13,-2.79 6.99,-7.59 -0.12,-3.85 -2.23,-6.41 -6.02,-6.33 -29.14,0.45 -44.7,-20.51 -61.68,-39.05 -9.08,-9.98 -8.45,-28.57 3.17,-31.97 21.03,-6.15 32.79,-21.11 41.8,-38.03 8.26,-15.46 22.79,-22.98 36.17,-32.36 -5.06,-5.33 -9.3,-3.71 -13.03,-4.39 -3.55,-0.73 -7.89,1.89 -10.8,-2.54 2.07,-7.58 9.96,-7.74 15.02,-11.39 16.42,-11.89 15.94,-12.3 -0.14,-23.79 -7.11,-5.06 -16.5,-2.65 -23.44,-9.28 4.03,-2.05 6.8,-3.78 9.77,-4.78 3.01,-1.04 6.27,-1.97 9.38,-1.91 21.15,0.6 14.86,0.03 16.93,-19.44 0.44,-4.19 0.78,-8.05 1,-11.79 505.38,2.09 993.51,21.31 1441.72,52.7 C 5510.9,3313.46 4952.98,3640 4320.14,3640" /><path
         id="path18"
         style="fill:#0099ff;fill-opacity:1;fill-rule:nonzero;stroke:none"
         d="m 613.941,1286.13 c -43.019,-69.97 -86.043,-141.45 -129.05,-214.54 -119.422,-19.3 -238.782,-39.8 -358.082,-61.58 C 84.5313,1072.7 42.2695,1136.86 0,1202.55 v 1637.26 c 42.9492,66.05 85.9102,130.48 128.871,193.47 118.609,-21.64 237.289,-42.03 356.02,-61.21 43.007,-73.49 86.031,-145.35 129.05,-215.72 v -298.3 c -66.371,4.81 -132.711,9.78 -199.043,14.93 v 155.49 c -71.82,7.51 -143.617,15.29 -215.386,23.36 v -1260 c 71.769,8.07 143.566,15.85 215.386,23.36 v 428.5 c -45.296,-1.39 -90.57,-2.8 -135.847,-4.26 v 364.81 c 111.57,-3.59 223.211,-6.98 334.89,-10.17 v -907.94" /><path
         id="path20"
         style="fill:#0099ff;fill-opacity:1;fill-rule:nonzero;stroke:none"
         d="m 952.922,2184.93 c 68.948,-1.74 137.908,-3.42 206.878,-5.03 v 380.26 c -68.97,5.48 -137.93,11.2 -206.878,17.12 z m 442.738,-988.15 c -71.3,-8.17 -142.59,-16.7 -213.86,-25.61 -56.6,223.96 -113.2,453.43 -169.78,689.01 -19.711,-0.47 -39.399,-0.98 -59.098,-1.47 v -392.35 c 19.008,1.63 38.019,3.25 57.028,4.85 v -322.25 c -104.688,-13.97 -209.329,-28.79 -313.938,-44.48 v 338.66 c 18.988,1.81 37.988,3.59 56.988,5.34 v 1146.67 c -19,1.77 -38,3.55 -56.988,5.35 v 338.67 c 178.547,-26.8 357.208,-51.01 535.988,-72.92 42.39,-64.32 84.8,-127.41 127.2,-189.37 v -609.14 c -45.39,-64.8 -90.77,-130.86 -136.14,-198.24 31.63,-126.32 63.26,-250.91 94.89,-373.84 25.91,1.93 51.81,3.84 77.71,5.71 v -304.59" /><path
         id="path22"
         style="fill:#0099ff;fill-opacity:1;fill-rule:nonzero;stroke:none"
         d="m 1792.36,1943.54 c 36.95,0.36 73.9,0.71 110.85,1.05 -18.59,131.99 -37.18,264.85 -55.77,398.62 -18.36,-132.34 -36.72,-265.54 -55.08,-399.67 m 111.53,-694.45 v 285.28 c 18.82,1.08 37.64,2.16 56.46,3.21 -5.74,41.06 -11.48,82.18 -17.21,123.4 -63.81,-2.68 -127.6,-5.51 -191.38,-8.45 -5.73,-42.68 -11.47,-85.45 -17.2,-128.34 19.26,1.21 38.53,2.4 57.8,3.57 V 1238.6 c -104.85,-10.1 -209.68,-20.95 -314.47,-32.55 v 301.17 c 17.65,1.23 35.31,2.46 52.97,3.66 58.71,444.32 117.43,878.12 176.17,1302.55 93.6,-9.37 187.22,-18.18 280.87,-26.42 58.75,-421.13 117.52,-833.61 176.3,-1238.52 18.14,0.91 36.28,1.83 54.43,2.73 v -275.43 c -104.94,-8.21 -209.85,-17.1 -314.74,-26.7" /><path
         id="path24"
         style="fill:#0099ff;fill-opacity:1;fill-rule:nonzero;stroke:none"
         d="m 2569.68,1832.25 v -265.3 c 18.61,0.75 37.22,1.48 55.83,2.2 v -264.91 c -104.99,-6.5 -209.96,-13.63 -314.91,-21.43 v 272.83 c 18.84,0.89 37.66,1.76 56.49,2.61 v 272.25 c -56.49,217.23 -112.98,438.05 -169.46,662.97 -25.26,1.26 -50.52,2.55 -75.78,3.86 v 278.28 c 104.92,-8.62 209.87,-16.56 314.84,-23.84 v -269.49 c -12.17,0.54 -24.35,1.06 -36.52,1.62 22.96,-92.72 45.93,-184.83 68.89,-276.33 22.52,90.72 45.04,180.85 67.55,270.46 -11.48,0.48 -22.97,0.96 -34.46,1.45 0,89.27 0,178.56 0,267.84 102.22,-6.82 204.46,-13.01 306.72,-18.61 v -260.97 c -21.6,0.75 -43.19,1.51 -64.8,2.28 -58.13,-209.57 -116.26,-421.98 -174.39,-637.77" /><path
         id="path26"
         style="fill:#0099ff;fill-opacity:1;fill-rule:nonzero;stroke:none"
         d="m 2891.26,2577.66 c 42.75,47.15 85.5,93.92 128.25,140.38 114.92,-5.37 229.86,-10 344.8,-13.91 43.22,-48.95 86.45,-97.5 129.67,-145.7 v -218.45 c -68.06,0.94 -136.11,2 -204.16,3.17 v 110.74 c -66.21,1.54 -132.42,3.22 -198.61,5.06 v -185.27 c 134.23,-126.83 268.5,-250.1 402.77,-371.44 v -416.17 c -43.22,-48.5 -86.45,-97.33 -129.67,-146.57 -114.94,-3.91 -229.89,-8.54 -344.8,-13.9 -42.75,46.44 -85.5,93.22 -128.25,140.37 v 226.27 c 67.56,1.64 135.13,3.15 202.71,4.54 v -112.02 c 66.43,1.84 132.86,3.52 199.3,5.06 -0.01,63.65 -0.01,127.29 0,190.95 -134.03,118.87 -268.03,239.99 -402.01,364.92 v 431.97" /><path
         id="path28"
         style="fill:#0099ff;fill-opacity:1;fill-rule:nonzero;stroke:none"
         d="m 4339.1,2442.05 c -57.95,-0.03 -115.9,0.07 -173.85,0.25 v -297.01 c 91.06,-0.1 182.13,-0.11 273.19,-0.04 0.01,-82.29 0.01,-164.59 0,-246.88 -91.06,0.07 -182.12,0.06 -273.19,-0.04 v -297.02 c 18.85,0.07 37.71,0.11 56.56,0.15 v -246 c -104.86,-0.37 -209.73,-1.3 -314.59,-2.83 v 247.06 c 19.08,0.17 38.16,0.33 57.26,0.48 v 843.28 c -19.1,0.14 -38.17,0.32 -57.26,0.48 v 247.06 c 210.88,-3.07 421.77,-3.77 632.66,-2.15 v -354.1 c -66.93,-0.25 -133.85,-0.39 -200.78,-0.4 v 107.71" /><path
         id="path30"
         style="fill:#0099ff;fill-opacity:1;fill-rule:nonzero;stroke:none"
         d="m 4622.32,1354.03 v 246.53 c 19.09,-0.12 38.18,-0.26 57.29,-0.42 v 843.34 c -19.11,-0.14 -38.2,-0.28 -57.29,-0.42 v 246.55 c 105.11,1.11 210.21,2.81 315.29,5.1 v -248.42 c -19.09,-0.27 -38.18,-0.52 -57.26,-0.76 v -847.44 c 19.08,-0.23 38.17,-0.48 57.26,-0.74 v -248.42 c -105.08,2.29 -210.18,3.99 -315.29,5.1" /><path
         id="path32"
         style="fill:#0099ff;fill-opacity:1;fill-rule:nonzero;stroke:none"
         d="m 5532.5,2458.49 c -18.62,-0.51 -37.24,-1.02 -55.86,-1.49 v -870.38 c 19.08,-0.49 38.17,-0.99 57.25,-1.52 v -255.58 c -105.05,4.57 -210.11,8.5 -315.18,11.86 v 251.21 c 19.08,-0.38 38.17,-0.79 57.25,-1.19 0.01,286.94 0.01,573.89 0,860.83 -18.62,-0.4 -37.24,-0.78 -55.86,-1.16 v -110.02 c -66.68,-1 -133.36,-1.9 -200.06,-2.66 0.01,119.42 0,238.82 0,358.23 237.54,5.88 475.03,14.78 712.42,26.87 v -372.5 c -66.64,-1.59 -133.3,-3.07 -199.96,-4.42 v 111.92" /><path
         id="path34"
         style="fill:#0099ff;fill-opacity:1;fill-rule:nonzero;stroke:none"
         d="m 6290.41,1285.69 c -72.81,262.39 -145.63,518.9 -218.45,770.56 -0.01,-163.12 -0.01,-326.25 0,-489.37 19.29,-0.78 38.59,-1.57 57.88,-2.38 v -267.65 c -104.98,6.97 -209.98,13.27 -314.98,18.96 v 260.64 c 19.3,-0.64 38.6,-1.33 57.91,-2.01 v 894.74 c -19.08,-0.68 -38.15,-1.34 -57.22,-2 v 260.66 c 90.52,4.9 181.05,10.26 271.56,16.13 73.06,-247.8 146.09,-500.22 219.12,-758.29 v 501.21 c -19.28,-0.89 -38.57,-1.77 -57.85,-2.64 v 270.66 c 104.72,7.45 209.44,15.57 314.1,24.37 v -279.65 c -19.28,-1.02 -38.56,-2.04 -57.85,-3.03 V 1269.15 c -71.4,5.83 -142.8,11.33 -214.22,16.54" /><path
         id="path36"
         style="fill:#0099ff;fill-opacity:1;fill-rule:nonzero;stroke:none"
         d="m 6644.78,1257.29 v 282.26 c 19.05,-1.05 38.12,-2.12 57.17,-3.21 v 970.96 c -19.05,-1.07 -38.12,-2.16 -57.17,-3.2 v 282.24 c 210.49,18.45 420.86,39.72 631.09,64.13 v -439.91 c -66.48,-3.62 -132.96,-7.09 -199.49,-10.43 v 130.39 c -58.25,-3.92 -116.52,-7.69 -174.8,-11.34 v -351.3 c 91.08,1.66 182.15,3.42 273.18,5.31 v -302.73 c -91.03,1.87 -182.1,3.65 -273.18,5.32 v -351.33 c 58.28,-3.63 116.55,-7.41 174.8,-11.33 v 130.39 c 66.52,-3.34 133.01,-6.81 199.49,-10.43 v -439.9 c -210.23,24.4 -420.6,45.68 -631.09,64.11" /><path
         id="path38"
         style="fill:#0099ff;fill-opacity:1;fill-rule:nonzero;stroke:none"
         d="m 7358.09,2685.14 c 42.63,62.39 85.26,125.96 127.89,190.79 114.58,14.47 229.1,29.91 343.59,46.39 43.05,-56.48 86.1,-114.11 129.13,-172.96 v -296.17 c -67.77,-4.79 -135.53,-9.4 -203.32,-13.86 v 143.9 c -65.95,-5.84 -131.94,-11.44 -197.92,-16.85 v -230.79 c 133.8,-149.01 267.55,-306.9 401.24,-475.88 v -564.24 c -43.04,-59.26 -86.08,-117.27 -129.13,-174.13 -114.48,16.48 -229.01,31.91 -343.59,46.38 -42.63,64.82 -85.26,128.4 -127.89,190.79 v 270.02 c 67.38,-3.79 134.77,-7.75 202.13,-11.86 v -139.63 c 66.2,-5.43 132.41,-11.06 198.59,-16.92 -0.01,82.76 -0.01,165.52 0,248.28 -133.51,163.39 -267.09,316.43 -400.72,461.25 v 515.49" /><path
         id="path40"
         style="fill:#0099ff;fill-opacity:1;fill-rule:nonzero;stroke:none"
         d="m 8040.74,2759.29 c 42.55,70.1 85.13,141.7 127.68,214.88 114.36,18.58 228.7,38.25 342.96,59.1 42.97,-62.54 85.94,-126.57 128.89,-192.15 0,-111.18 0.01,-222.35 0,-333.52 -67.62,-6.04 -135.26,-11.87 -202.93,-17.54 v 161.39 c -65.83,-7.4 -131.7,-14.54 -197.56,-21.47 v -257.75 c 133.58,-165.38 267.07,-342.19 400.49,-532.97 0,-211.8 0.01,-423.59 0,-635.39 -42.95,-66.04 -85.92,-130.51 -128.89,-193.49 -114.26,20.85 -228.58,40.53 -342.96,59.1 -42.55,73.19 -85.12,144.78 -127.68,214.88 v 300.21 c 67.28,-4.91 134.54,-9.98 201.8,-15.23 v -155.95 c 66.09,-6.95 132.16,-14.13 198.22,-21.56 v 278.47 c -133.25,184.22 -266.61,355.39 -400.02,515.88 v 573.11" /><path
         id="path42"
         style="fill:#ff1200;fill-opacity:1;fill-rule:nonzero;stroke:none"
         d="M 168.539,667.66 C 157.828,656.512 147.121,645.352 136.422,634.18 106.629,629.148 76.8398,624.07 47.0586,618.922 36.5781,626.41 26.1094,633.891 15.6289,641.371 V 831.43 c -4.6601,-0.809 -9.33984,-1.629 -14.00781,-2.442 v 49.352 c 25.66801,4.48 51.33981,8.922 77.01951,13.32 v -49.351 c -4.6718,-0.797 -9.3398,-1.598 -14.0195,-2.411 V 671.281 c 18.3008,3.149 36.5979,6.27 54.9099,9.379 v 168.61 c -4.742,-0.801 -9.461,-1.598 -14.191,-2.411 v 49.352 c 25.73,4.391 51.48,8.738 77.23,13.027 v -49.347 c -4.679,-0.782 -9.359,-1.571 -14.031,-2.352 V 667.66" /><path
         id="path44"
         style="fill:#ff1200;fill-opacity:1;fill-rule:nonzero;stroke:none"
         d="m 353.879,697.82 c -10.43,-10.968 -20.859,-21.929 -31.289,-32.91 -28.25,-4.558 -56.488,-9.16 -84.731,-13.808 -10.539,7.558 -21.07,15.117 -31.609,22.668 v 43.058 c 16.34,2.711 32.68,5.402 49.02,8.094 v -21.621 c 16.519,2.699 33.031,5.398 49.55,8.07 v 59.559 c -22.32,-3.629 -44.64,-7.27 -66.961,-10.942 -10.539,7.621 -21.07,15.242 -31.609,22.864 v 102.25 c 10.539,11.097 21.07,22.207 31.609,33.308 28.243,4.641 56.481,9.238 84.731,13.801 10.43,-7.621 20.859,-15.25 31.289,-22.891 v -43.039 c -16.359,-2.621 -32.707,-5.25 -49.059,-7.89 v 21.597 c -16.519,-2.679 -33.031,-5.367 -49.55,-8.078 v -59.551 c 22.429,3.68 44.871,7.332 67.32,10.95 10.43,-7.68 20.859,-15.36 31.289,-23.047 V 697.82" /><path
         id="path46"
         style="fill:#ff1200;fill-opacity:1;fill-rule:nonzero;stroke:none"
         d="m 377.57,673.711 v 49.34 c 4.68,0.738 9.36,1.48 14.039,2.219 v 168.621 c -4.679,-0.75 -9.359,-1.493 -14.039,-2.231 v 49.352 c 51.711,8.226 103.45,16.277 155.211,24.168 v -70.95 c -16.371,-2.5 -32.742,-5.011 -49.101,-7.539 v 21.598 c -14.328,-2.219 -28.66,-4.437 -42.989,-6.68 v -59.55 c 22.399,3.5 44.797,6.972 67.2,10.41 v -49.508 c -22.403,-3.441 -44.801,-6.922 -67.2,-10.41 V 733 c 14.329,2.23 28.661,4.461 42.989,6.68 v 21.621 c 16.359,2.527 32.73,5.051 49.101,7.539 V 697.879 C 481.02,689.988 429.281,681.93 377.57,673.711" /><path
         id="path48"
         style="fill:#ff1200;fill-opacity:1;fill-rule:nonzero;stroke:none"
         d="m 674.191,768.379 v 168.609 c -18.132,-2.648 -36.25,-5.34 -54.382,-8.027 V 760.34 c 18.132,2.699 36.25,5.379 54.382,8.039 m 17.278,220.5 c 10.621,-7.859 21.242,-15.731 31.859,-23.617 V 754.27 c -10.617,-10.891 -21.238,-21.79 -31.859,-32.7 -45.008,-6.57 -90.008,-13.269 -135,-20.082 v 49.332 c 4.691,0.711 9.371,1.43 14.062,2.129 v 168.61 c -4.691,-0.7 -9.371,-1.411 -14.062,-2.129 v 49.359 c 44.992,6.82 89.992,13.52 135,20.09" /><path
         id="path50"
         style="fill:#ff1200;fill-opacity:1;fill-rule:nonzero;stroke:none"
         d="m 909.309,872.699 c 9.101,1.25 18.203,2.492 27.3,3.731 -4.578,22.242 -9.148,44.461 -13.73,66.699 -4.52,-23.481 -9.051,-46.949 -13.57,-70.43 m 27.48,-116.539 v 49.328 c 4.633,0.641 9.27,1.262 13.902,1.891 -1.41,7.019 -2.82,14.031 -4.23,21.051 -15.723,-2.141 -31.441,-4.27 -47.152,-6.442 -1.418,-7.398 -2.829,-14.797 -4.239,-22.199 4.75,0.652 9.489,1.301 14.239,1.949 V 752.41 C 883.48,748.859 857.641,745.289 831.82,741.66 V 791 c 4.352,0.609 8.7,1.219 13.051,1.828 14.469,74.672 28.938,149.344 43.41,223.992 23.071,3.18 46.129,6.33 69.199,9.44 14.481,-70.69 28.95,-141.401 43.43,-212.131 l 13.4,1.781 v -49.332 c -25.841,-3.437 -51.681,-6.906 -77.521,-10.418" /><path
         id="path52"
         style="fill:#ff1200;fill-opacity:1;fill-rule:nonzero;stroke:none"
         d="m 1155.18,784.879 c -17.94,44.391 -35.87,88.769 -53.81,133.133 V 827.32 c 4.75,0.621 9.5,1.219 14.25,1.84 v -49.34 c -25.85,-3.332 -51.7,-6.691 -77.55,-10.101 v 49.34 c 4.75,0.621 9.5,1.25 14.25,1.871 v 168.621 c -4.69,-0.621 -9.39,-1.242 -14.08,-1.86 v 49.359 c 22.28,2.94 44.57,5.85 66.86,8.72 17.99,-44.42 35.98,-88.848 53.98,-133.301 v 90.851 c -4.75,-0.6 -9.51,-1.2 -14.26,-1.81 v 49.36 c 25.8,3.29 51.61,6.53 77.42,9.74 v -49.35 c -4.76,-0.6 -9.51,-1.18 -14.27,-1.78 V 791.531 c -17.59,-2.203 -35.19,-4.41 -52.79,-6.652" /><path
         id="path54"
         style="fill:#ff1200;fill-opacity:1;fill-rule:nonzero;stroke:none"
         d="m 1364.06,859.859 v 168.611 c -18.18,-2.15 -36.36,-4.32 -54.53,-6.52 V 853.34 c 18.17,2.191 36.35,4.359 54.53,6.519 m 17.33,220.021 c 10.65,-8.16 21.3,-16.33 31.95,-24.5 V 844.379 c -10.65,-10.59 -21.3,-21.199 -31.95,-31.809 -45.14,-5.32 -90.26,-10.761 -135.38,-16.32 v 49.328 c 4.7,0.582 9.4,1.16 14.09,1.742 v 168.61 c -4.69,-0.57 -9.39,-1.15 -14.09,-1.73 v 49.35 c 45.12,5.57 90.24,11.01 135.38,16.33" /><path
         id="path56"
         style="fill:#ff1200;fill-opacity:1;fill-rule:nonzero;stroke:none"
         d="m 1585.69,994.191 c 17.06,1.868 34.12,3.719 51.18,5.559 v 59.55 c -17.06,-1.84 -34.12,-3.69 -51.18,-5.56 z m 109.52,-146.652 c -17.63,-1.848 -35.27,-3.719 -52.89,-5.617 -14.01,34.797 -28.01,69.578 -42.01,104.348 -4.87,-0.532 -9.75,-1.051 -14.62,-1.59 v -59.551 c 4.71,0.519 9.41,1.019 14.11,1.543 v -49.344 c -25.9,-2.816 -51.8,-5.68 -77.69,-8.59 v 49.34 c 4.71,0.531 9.41,1.051 14.11,1.582 v 168.61 c -4.7,-0.53 -9.4,-1.05 -14.11,-1.58 v 49.36 c 44.2,4.96 88.4,9.79 132.62,14.51 10.49,-8.24 20.97,-16.49 31.46,-24.75 v -98.162 c -11.23,-11.679 -22.45,-23.359 -33.67,-35.058 7.82,-19.238 15.65,-38.488 23.47,-57.738 6.4,0.679 12.82,1.359 19.22,2.027 v -49.34" /><path
         id="path58"
         style="fill:#ff1200;fill-opacity:1;fill-rule:nonzero;stroke:none"
         d="m 1719.02,850.039 v 49.34 c 4.71,0.48 9.41,0.973 14.12,1.461 v 168.61 c -4.71,-0.48 -9.41,-0.97 -14.12,-1.46 v 49.35 c 51.99,5.41 104,10.67 156.02,15.76 v -70.96 c -16.46,-1.61 -32.91,-3.23 -49.35,-4.87 v 21.6 c -14.41,-1.45 -28.81,-2.89 -43.22,-4.36 v -59.55 c 22.52,2.29 45.03,4.54 67.55,6.77 v -49.511 c -22.52,-2.231 -45.03,-4.481 -67.55,-6.77 v -59.551 c 14.41,1.461 28.81,2.911 43.22,4.352 v 21.629 c 16.44,1.641 32.89,3.262 49.35,4.871 v -70.961 c -52.02,-5.09 -104.03,-10.34 -156.02,-15.75" /><path
         id="path60"
         style="fill:#ff1200;fill-opacity:1;fill-rule:nonzero;stroke:none"
         d="m 2035.38,880.961 c 0,16.449 0,32.891 0,49.34 4.54,0.418 9.08,0.828 13.62,1.238 v 101.251 c -14.36,-31.94 -28.72,-63.88 -43.07,-95.841 -14.3,29.301 -28.61,58.602 -42.9,87.891 V 923.59 c 4.54,0.422 9.07,0.851 13.61,1.281 v -49.34 c -25.92,-2.429 -51.85,-4.902 -77.77,-7.41 v 49.328 c 4.93,0.473 9.86,0.949 14.79,1.43 v 168.611 c -4.76,-0.46 -9.53,-0.91 -14.29,-1.37 v 49.35 c 21.22,2.05 42.44,4.08 63.66,6.09 14.29,-29.29 28.6,-58.59 42.9,-87.89 14.35,31.96 28.71,63.9 43.07,95.83 21.22,1.94 42.45,3.83 63.68,5.71 v -49.36 c -4.71,-0.41 -9.42,-0.83 -14.13,-1.25 V 935.988 c 4.88,0.442 9.76,0.871 14.65,1.301 v -49.34 c -25.95,-2.277 -51.89,-4.621 -77.82,-6.988" /><path
         id="path62"
         style="fill:#ff1200;fill-opacity:1;fill-rule:nonzero;stroke:none"
         d="m 2214.87,1017 c 9.14,0.77 18.28,1.53 27.42,2.29 -4.6,22.49 -9.19,44.96 -13.79,67.43 -4.54,-23.24 -9.09,-46.48 -13.63,-69.72 m 27.6,-117.988 v 49.34 c 4.65,0.386 9.3,0.769 13.96,1.16 -1.42,7.09 -2.83,14.179 -4.25,21.269 -15.79,-1.312 -31.58,-2.633 -47.36,-3.972 -1.42,-7.321 -2.84,-14.637 -4.25,-21.969 4.76,0.398 9.53,0.801 14.3,1.199 v -49.328 c -25.95,-2.18 -51.89,-4.41 -77.83,-6.672 v 49.332 l 13.11,1.149 c 14.53,73.91 29.07,147.82 43.6,221.7 23.17,1.98 46.33,3.91 69.49,5.82 14.55,-71.46 29.09,-142.93 43.63,-214.431 4.48,0.36 8.97,0.719 13.45,1.09 v -49.34 c -25.95,-2.07 -51.91,-4.187 -77.85,-6.347" /><path
         id="path64"
         style="fill:#ff1200;fill-opacity:1;fill-rule:nonzero;stroke:none"
         d="m 2461.76,916.262 c -18.01,45.34 -36.02,90.648 -54.02,135.948 v -90.69 c 4.77,0.371 9.54,0.742 14.31,1.101 v -49.34 c -25.96,-1.961 -51.92,-3.972 -77.87,-6.019 v 49.328 c 4.77,0.379 9.53,0.75 14.3,1.129 v 168.611 c -4.71,-0.37 -9.43,-0.74 -14.14,-1.11 v 49.35 c 22.38,1.77 44.76,3.51 67.14,5.22 18.07,-45.37 36.13,-90.75 54.19,-136.15 v 90.86 c -4.77,-0.35 -9.54,-0.71 -14.31,-1.06 v 49.35 c 25.91,1.94 51.82,3.83 77.72,5.69 v -49.36 c -4.77,-0.35 -9.54,-0.68 -14.32,-1.03 V 920.141 c -17.67,-1.27 -35.33,-2.571 -53,-3.879" /><path
         id="path66"
         style="fill:#ff1200;fill-opacity:1;fill-rule:nonzero;stroke:none"
         d="m 2721.4,962.25 c -10.81,-10.039 -21.61,-20.102 -32.41,-30.16 -30.06,-1.949 -60.12,-3.961 -90.18,-6.031 -10.57,8.57 -21.14,17.14 -31.71,25.691 v 190.06 l -14.15,-1 v 49.36 c 25.91,1.83 51.82,3.61 77.74,5.36 v -49.35 c -4.72,-0.32 -9.44,-0.64 -14.15,-0.96 V 976.609 c 18.47,1.262 36.94,2.5 55.41,3.711 v 168.61 c -4.77,-0.31 -9.55,-0.64 -14.32,-0.95 v 49.36 c 25.97,1.73 51.94,3.41 77.92,5.05 v -49.36 c -4.72,-0.29 -9.43,-0.59 -14.15,-0.9 V 962.25" /><path
         id="path68"
         style="fill:#ff1200;fill-opacity:1;fill-rule:nonzero;stroke:none"
         d="m 2866.2,1160.96 c -14.33,-0.84 -28.66,-1.68 -42.98,-2.54 v -59.55 c 22.51,1.35 45.03,2.67 67.55,3.95 v -49.52 c -22.52,-1.28 -45.04,-2.59 -67.55,-3.94 v -59.551 c 4.66,0.281 9.32,0.55 13.99,0.839 v -49.339 c -25.93,-1.539 -51.85,-3.11 -77.78,-4.719 v 49.332 c 4.72,0.289 9.44,0.59 14.16,0.879 v 168.609 c -4.72,-0.29 -9.44,-0.58 -14.16,-0.88 v 49.36 c 52.13,3.24 104.27,6.33 156.41,9.25 v -70.96 c -16.55,-0.93 -33.09,-1.86 -49.64,-2.82 v 21.6" /><path
         id="path70"
         style="fill:#ff1200;fill-opacity:1;fill-rule:nonzero;stroke:none"
         d="m 2974.18,1069.33 c 9.16,0.5 18.31,0.98 27.47,1.46 -4.61,22.62 -9.21,45.23 -13.82,67.85 -4.55,-23.11 -9.1,-46.2 -13.65,-69.31 m 27.64,-118.818 v 49.34 c 4.66,0.238 9.32,0.488 13.99,0.718 -1.42,7.14 -2.85,14.27 -4.26,21.41 -15.82,-0.83 -31.63,-1.67 -47.43,-2.52 l -4.27,-21.858 c 4.78,0.269 9.55,0.519 14.33,0.769 v -49.332 c -25.99,-1.398 -51.97,-2.84 -77.95,-4.309 v 49.34 c 4.37,0.25 8.75,0.489 13.13,0.739 14.55,73.481 29.11,146.941 43.67,220.391 23.2,1.27 46.4,2.5 69.6,3.7 14.56,-71.9 29.12,-143.82 43.69,-215.75 4.49,0.23 8.98,0.45 13.47,0.67 v -49.332 c -25.99,-1.277 -51.98,-2.609 -77.97,-3.976" /><path
         id="path72"
         style="fill:#ff1200;fill-opacity:1;fill-rule:nonzero;stroke:none"
         d="m 3255.9,990.469 c -10.81,-9.758 -21.61,-19.508 -32.42,-29.289 -29.41,-1.289 -58.82,-2.621 -88.23,-4.008 -10.52,8.797 -21.04,17.59 -31.57,26.379 v 211.319 c 10.53,9.88 21.05,19.74 31.57,29.6 29.41,1.39 58.82,2.73 88.23,4.02 10.81,-8.94 21.61,-17.89 32.42,-26.85 v -42.71 c -16.49,-0.71 -32.99,-1.42 -49.49,-2.15 v 21.6 c -17.75,-0.79 -35.5,-1.59 -53.24,-2.42 v -168.62 c 17.74,0.83 35.49,1.64 53.24,2.43 v 21.62 c 16.5,0.73 33,1.44 49.49,2.15 v -43.071" /><path
         id="path74"
         style="fill:#ff1200;fill-opacity:1;fill-rule:nonzero;stroke:none"
         d="m 3406.62,1186.48 c -4.61,-0.17 -9.22,-0.34 -13.82,-0.51 v -168.61 c 4.72,0.17 9.44,0.35 14.16,0.52 v -49.341 c -26,-0.949 -52,-1.93 -78,-2.961 v 49.342 l 14.16,0.55 v 168.62 c -4.61,-0.19 -9.21,-0.36 -13.83,-0.55 v -21.6 c -16.49,-0.66 -32.99,-1.32 -49.49,-2 v 70.95 c 58.77,2.45 117.55,4.67 176.33,6.7 v -70.95 c -16.51,-0.58 -33.01,-1.16 -49.51,-1.76 v 21.6" /><path
         id="path76"
         style="fill:#ff1200;fill-opacity:1;fill-rule:nonzero;stroke:none"
         d="m 3648.71,1004.25 c -10.82,-9.648 -21.63,-19.301 -32.45,-28.961 -30.1,-0.84 -60.2,-1.738 -90.3,-2.699 -10.58,8.961 -21.17,17.922 -31.76,26.871 v 190.049 c -4.72,-0.15 -9.45,-0.31 -14.17,-0.47 v 49.36 c 25.95,0.87 51.9,1.7 77.85,2.49 v -49.35 l -14.17,-0.44 v -168.62 c 18.5,0.58 36.99,1.13 55.48,1.66 v 168.62 c -4.77,-0.14 -9.55,-0.28 -14.33,-0.42 v 49.35 c 26.01,0.76 52.01,1.49 78.02,2.17 v -49.36 c -4.72,-0.11 -9.44,-0.24 -14.17,-0.37 v -189.88" /><path
         id="path78"
         style="fill:#ff1200;fill-opacity:1;fill-rule:nonzero;stroke:none"
         d="m 3750.65,1137.1 c 17.13,0.39 34.26,0.76 51.39,1.12 v 59.55 c -17.13,-0.36 -34.26,-0.73 -51.39,-1.12 z m 109.97,-156.131 c -17.7,-0.328 -35.4,-0.68 -53.11,-1.039 -14.06,36.01 -28.12,72 -42.18,107.99 -4.89,-0.11 -9.79,-0.21 -14.68,-0.33 v -59.55 c 4.72,0.1 9.44,0.21 14.17,0.32 v -49.34 c -26.01,-0.571 -52.02,-1.192 -78.03,-1.848 v 49.328 c 4.72,0.13 9.45,0.25 14.17,0.37 v 168.61 c -4.72,-0.12 -9.45,-0.24 -14.17,-0.36 v 49.35 c 44.39,1.13 88.79,2.13 133.19,3.02 10.53,-9.15 21.06,-18.31 31.59,-27.48 v -98.16 c -11.28,-10.71 -22.55,-21.42 -33.82,-32.14 l 23.57,-59.77 c 6.43,0.12 12.87,0.24 19.3,0.36 v -49.331" /><path
         id="path80"
         style="fill:#ff1200;fill-opacity:1;fill-rule:nonzero;stroke:none"
         d="m 3884.53,981.391 v 49.339 c 4.72,0.08 9.45,0.16 14.17,0.24 v 168.61 c -4.72,-0.07 -9.45,-0.15 -14.17,-0.24 v 49.35 c 52.2,0.91 104.39,1.66 156.6,2.24 v -70.96 c -16.51,-0.17 -33.02,-0.38 -49.53,-0.59 v 21.6 c -14.46,-0.2 -28.92,-0.39 -43.37,-0.61 v -59.55 c 22.59,0.34 45.2,0.64 67.79,0.91 v -49.51 c -22.59,-0.27 -45.19,-0.58 -67.79,-0.91 v -59.55 c 14.45,0.22 28.91,0.41 43.37,0.61 v 21.62 c 16.51,0.21 33.02,0.42 49.53,0.59 v -70.951 c -52.21,-0.578 -104.4,-1.328 -156.6,-2.238" /><path
         id="path82"
         style="fill:#ff1200;fill-opacity:1;fill-rule:nonzero;stroke:none"
         d="m 4183.73,1034.15 v 168.61 c -18.28,-0.09 -36.55,-0.22 -54.82,-0.36 v -168.61 c 18.27,0.14 36.54,0.26 54.82,0.36 m 17.42,218.06 c 10.71,-9.36 21.41,-18.73 32.11,-28.11 v -210.99 c -10.7,-9.4 -21.4,-18.79 -32.11,-28.212 -45.37,-0.207 -90.75,-0.546 -136.12,-1.007 v 49.329 c 4.73,0.05 9.45,0.09 14.18,0.14 v 168.61 c -4.73,-0.05 -9.45,-0.09 -14.18,-0.13 v 49.35 c 45.37,0.46 90.75,0.8 136.12,1.02" /><path
         id="path84"
         style="fill:#ff1200;fill-opacity:1;fill-rule:nonzero;stroke:none"
         d="m 4494.9,1012.49 c -10.81,-9.23 -21.63,-18.459 -32.44,-27.689 -29.43,0.16 -58.87,0.277 -88.3,0.34 -10.54,9.32 -21.07,18.629 -31.6,27.939 v 211.32 c 10.53,9.36 21.06,18.71 31.6,28.04 29.43,-0.06 58.87,-0.17 88.3,-0.33 10.81,-9.48 21.63,-18.97 32.44,-28.45 v -42.71 c -16.51,0.1 -33.03,0.2 -49.54,0.29 v 21.6 c -17.76,0.09 -35.52,0.16 -53.28,0.21 v -168.62 c 17.76,-0.05 35.52,-0.11 53.28,-0.2 v 21.62 c 16.51,-0.09 33.03,-0.19 49.54,-0.29 v -43.07" /><path
         id="path86"
         style="fill:#ff1200;fill-opacity:1;fill-rule:nonzero;stroke:none"
         d="m 4624.87,1032.71 v 168.61 c -18.84,0.23 -37.69,0.43 -56.53,0.62 v -168.61 c 18.84,-0.19 37.69,-0.4 56.53,-0.62 m 49.7,-22.1 c -10.65,-9.14 -21.29,-18.301 -31.94,-27.462 -30.74,0.391 -61.48,0.731 -92.23,1.012 -10.53,9.391 -21.06,18.77 -31.58,28.16 v 211.33 c 10.52,9.27 21.05,18.54 31.58,27.81 30.75,-0.27 61.49,-0.62 92.23,-1.01 10.65,-9.49 21.29,-19 31.94,-28.51 v -211.33" /><path
         id="path88"
         style="fill:#ff1200;fill-opacity:1;fill-rule:nonzero;stroke:none"
         d="m 4835.43,979.941 v 49.339 c 4.55,-0.1 9.1,-0.19 13.66,-0.29 v 101.25 c -14.4,-30.33 -28.8,-60.67 -43.2,-91.02 -14.35,30.91 -28.7,61.8 -43.05,92.68 v -101.25 c 4.55,-0.08 9.11,-0.15 13.66,-0.24 v -49.34 c -26.01,0.481 -52.02,0.91 -78.03,1.301 v 49.339 c 4.95,-0.08 9.9,-0.16 14.86,-0.24 v 168.62 c -4.78,0.07 -9.57,0.15 -14.36,0.22 v 49.36 c 21.29,-0.33 42.58,-0.67 63.87,-1.05 14.35,-30.88 28.7,-61.78 43.05,-92.68 14.4,30.35 28.8,60.69 43.2,91.02 21.29,-0.45 42.57,-0.92 63.86,-1.41 v -49.36 c -4.73,0.11 -9.44,0.21 -14.17,0.32 V 1027.9 c 4.89,-0.11 9.78,-0.23 14.68,-0.34 v -49.341 c -26.01,0.621 -52.02,1.191 -78.03,1.722" /><path
         id="path90"
         style="fill:#ff1200;fill-opacity:1;fill-rule:nonzero;stroke:none"
         d="m 5074.31,973.93 v 49.34 c 4.56,-0.14 9.11,-0.28 13.66,-0.42 v 101.25 c -14.39,-30.19 -28.8,-60.39 -43.19,-90.62 -14.35,31.05 -28.69,62.08 -43.04,93.11 v -101.25 c 4.55,-0.13 9.1,-0.26 13.66,-0.38 v -49.339 c -26.01,0.719 -52.02,1.399 -78.02,2.039 V 1027 c 4.95,-0.13 9.9,-0.26 14.85,-0.37 v 168.61 c -4.79,0.12 -9.56,0.23 -14.35,0.35 v 49.36 c 21.29,-0.52 42.57,-1.08 63.86,-1.65 14.35,-31.02 28.69,-62.06 43.04,-93.1 14.39,30.22 28.8,60.43 43.19,90.61 21.28,-0.64 42.57,-1.31 63.85,-2.02 v -49.35 c -4.73,0.15 -9.44,0.3 -14.17,0.46 v -168.62 c 4.89,-0.15 9.78,-0.32 14.68,-0.48 v -49.331 c -26.01,0.859 -52.01,1.679 -78.02,2.461" /><path
         id="path92"
         style="fill:#ff1200;fill-opacity:1;fill-rule:nonzero;stroke:none"
         d="m 5176.23,970.672 v 49.338 c 4.73,-0.17 9.44,-0.34 14.17,-0.49 v 168.61 c -4.73,0.16 -9.44,0.32 -14.17,0.49 v 49.35 c 52.18,-1.77 104.36,-3.72 156.52,-5.82 v -70.95 c -16.49,0.66 -32.99,1.32 -49.49,1.94 v 21.6 c -14.45,0.56 -28.91,1.1 -43.36,1.63 v -59.55 c 22.59,-0.83 45.18,-1.69 67.78,-2.58 v -49.51 c -22.6,0.89 -45.19,1.75 -67.78,2.58 v -59.55 c 14.45,-0.54 28.91,-1.07 43.36,-1.63 v 21.62 c 16.5,-0.62 33,-1.28 49.49,-1.94 v -70.958 c -52.16,2.097 -104.34,4.039 -156.52,5.82" /><path
         id="path94"
         style="fill:#ff1200;fill-opacity:1;fill-rule:nonzero;stroke:none"
         d="m 5420.49,1119.56 c 17.12,-0.75 34.24,-1.51 51.36,-2.3 v 59.55 c -17.12,0.79 -34.24,1.55 -51.36,2.3 z m 109.89,-163.451 c -17.69,0.852 -35.38,1.68 -53.06,2.5 -14.06,36.942 -28.11,73.871 -42.16,110.791 -4.89,0.22 -9.79,0.43 -14.67,0.65 v -59.55 c 4.72,-0.21 9.43,-0.42 14.16,-0.63 v -49.331 c -26,1.152 -51.99,2.262 -77.99,3.34 v 49.331 c 4.72,-0.19 9.44,-0.39 14.16,-0.59 v 168.61 c -4.72,0.2 -9.44,0.4 -14.16,0.6 v 49.35 c 44.38,-1.83 88.74,-3.78 133.12,-5.85 10.51,-9.84 21.03,-19.71 31.55,-29.57 v -98.16 c -11.26,-9.96 -22.53,-19.92 -33.79,-29.9 7.85,-20.43 15.71,-40.88 23.57,-61.33 6.42,-0.31 12.85,-0.62 19.27,-0.92 v -49.341" /><path
         id="path96"
         style="fill:#ff1200;fill-opacity:1;fill-rule:nonzero;stroke:none"
         d="m 5706.47,974.898 c -10.8,-8.699 -21.6,-17.41 -32.41,-26.117 -29.4,1.578 -58.8,3.11 -88.21,4.598 -10.52,9.82 -21.05,19.652 -31.57,29.461 v 211.33 c 10.52,8.84 21.05,17.67 31.57,26.51 29.41,-1.48 58.81,-3.02 88.21,-4.6 10.81,-10 21.61,-20 32.41,-30.01 v -42.71 c -16.49,0.91 -32.99,1.8 -49.48,2.67 v 21.6 c -17.75,0.95 -35.49,1.88 -53.23,2.79 V 1001.8 c 17.74,-0.9 35.48,-1.831 53.23,-2.78 v 21.62 c 16.49,-0.87 32.99,-1.77 49.48,-2.67 v -43.072" /><path
         id="path98"
         style="fill:#ff1200;fill-opacity:1;fill-rule:nonzero;stroke:none"
         d="m 5730.33,945.691 v 49.34 c 4.73,-0.269 9.44,-0.543 14.16,-0.801 v 168.61 c -4.72,0.26 -9.43,0.54 -14.16,0.8 v 49.35 c 25.99,-1.46 51.97,-2.95 77.95,-4.5 v -49.35 c -4.72,0.28 -9.43,0.55 -14.15,0.84 V 991.359 c 4.72,-0.281 9.43,-0.55 14.15,-0.839 v -49.329 c -25.98,1.539 -51.96,3.039 -77.95,4.5" /><path
         id="path100"
         style="fill:#ff1200;fill-opacity:1;fill-rule:nonzero;stroke:none"
         d="m 5910.1,1055.24 c 9.16,-0.58 18.31,-1.16 27.47,-1.76 -4.61,23.16 -9.22,46.31 -13.82,69.47 z m 27.65,-122.06 v 49.34 c 4.65,-0.309 9.31,-0.598 13.97,-0.899 -1.42,7.289 -2.85,14.598 -4.27,21.889 -15.8,1.03 -31.61,2.03 -47.41,3.03 l -4.25,-21.36 c 4.78,-0.289 9.54,-0.59 14.31,-0.899 v -49.332 c -25.98,1.641 -51.95,3.25 -77.93,4.813 v 49.34 c 4.38,-0.274 8.76,-0.532 13.14,-0.793 14.55,71.761 29.1,143.521 43.66,215.271 23.18,-1.45 46.37,-2.93 69.56,-4.44 14.56,-73.61 29.11,-147.23 43.67,-220.859 4.48,-0.312 8.97,-0.601 13.46,-0.91 v -49.34 c -25.97,1.758 -51.95,3.481 -77.91,5.149" /><path
         id="path102"
         style="fill:#ff1200;fill-opacity:1;fill-rule:nonzero;stroke:none"
         d="m 6039.53,926.41 v 49.34 c 4.72,-0.328 9.43,-0.648 14.15,-0.98 v 168.61 c -4.72,0.33 -9.43,0.66 -14.15,0.98 v 49.35 c 25.98,-1.77 51.94,-3.59 77.9,-5.45 v -49.36 c -4.71,0.34 -9.42,0.67 -14.14,1.01 V 971.289 c 12.55,-0.891 25.11,-1.777 37.67,-2.699 v 21.621 c 16.53,-1.199 33.06,-2.41 49.59,-3.641 v -70.961 c -50.33,3.75 -100.67,7.352 -151.02,10.801" /><path
         id="path104"
         style="fill:#ff1200;fill-opacity:1;fill-rule:nonzero;stroke:none"
         d="m 6452.1,922.621 c -10.67,-8.391 -21.36,-16.793 -32.03,-25.191 -29.64,2.48 -59.29,4.922 -88.94,7.289 -10.5,10.152 -21,20.269 -31.5,30.402 v 211.329 c 10.66,8.52 21.34,17.03 32.01,25.54 29.48,-2.37 58.96,-4.79 88.43,-7.25 10.67,-10.26 21.36,-20.53 32.03,-30.79 v -42.87 c -16.47,1.39 -32.94,2.78 -49.41,4.15 v 21.6 c -17.83,1.48 -35.66,2.94 -53.49,4.38 V 952.602 c 17.83,-1.442 35.66,-2.903 53.49,-4.383 v 59.551 c -11.24,0.93 -22.49,1.86 -33.73,2.78 v 49.51 c 27.71,-2.26 55.43,-4.58 83.14,-6.93 V 922.621" /><path
         id="path106"
         style="fill:#ff1200;fill-opacity:1;fill-rule:nonzero;stroke:none"
         d="m 6586.62,981.43 v -49.18 c 4.6,-0.41 9.19,-0.828 13.78,-1.25 v -49.34 c -25.93,2.371 -51.87,4.692 -77.81,6.969 v 49.332 c 4.66,-0.41 9.3,-0.82 13.95,-1.231 v 49.508 c -13.95,40.942 -27.92,81.872 -41.88,122.782 -6.24,0.54 -12.49,1.08 -18.73,1.62 v 49.35 c 25.94,-2.23 51.88,-4.51 77.82,-6.81 v -49.36 c -3.01,0.27 -6.01,0.53 -9.01,0.8 5.67,-17.23 11.34,-34.47 17.03,-51.72 5.55,16.24 11.11,32.48 16.67,48.71 -2.84,0.25 -5.68,0.5 -8.51,0.76 v 49.35 c 25.26,-2.26 50.52,-4.57 75.77,-6.92 v -49.36 c -5.33,0.5 -10.67,1 -16,1.49 -14.36,-38.49 -28.71,-76.98 -43.08,-115.5" /><path
         id="path108"
         style="fill:#ff1200;fill-opacity:1;fill-rule:nonzero;stroke:none"
         d="m 6806.02,862.09 v 49.34 c 4.53,-0.461 9.08,-0.91 13.61,-1.36 v 101.25 c -14.34,-29.199 -28.7,-58.41 -43.04,-87.64 -14.31,32.031 -28.61,64.058 -42.91,96.08 V 918.512 l 13.63,-1.321 v -49.339 c -25.94,2.507 -51.87,4.976 -77.79,7.418 v 49.339 c 4.95,-0.468 9.87,-0.929 14.81,-1.398 v 168.619 c -4.76,0.45 -9.54,0.89 -14.31,1.34 v 49.36 c 21.23,-1.99 42.45,-4.01 63.66,-6.06 14.3,-32.01 28.6,-64.03 42.91,-96.07 14.34,29.22 28.7,58.44 43.04,87.64 21.21,-2.12 42.42,-4.27 63.64,-6.45 v -49.35 c -4.71,0.48 -9.42,0.96 -14.13,1.44 V 905.07 c 4.88,-0.5 9.76,-1 14.62,-1.5 v -49.332 c -25.91,2.653 -51.82,5.274 -77.74,7.852" /><path
         id="path110"
         style="fill:#ff1200;fill-opacity:1;fill-rule:nonzero;stroke:none"
         d="m 6992.64,842.84 v 49.34 c 4.71,-0.508 9.41,-1.008 14.11,-1.52 v 168.62 c -4.7,0.5 -9.4,1 -14.11,1.51 v 49.35 c 51.98,-5.55 103.95,-11.27 155.9,-17.15 v -70.96 c -16.44,1.85 -32.86,3.7 -49.3,5.53 v 21.6 c -14.39,1.6 -28.79,3.19 -43.18,4.76 v -59.549 c 22.5,-2.461 45,-4.949 67.5,-7.48 v -49.512 c -22.5,2.531 -45,5.019 -67.5,7.48 v -59.55 c 14.39,-1.571 28.79,-3.161 43.18,-4.758 v 21.621 c 16.44,-1.832 32.86,-3.684 49.3,-5.531 V 825.68 c -51.95,5.879 -103.92,11.601 -155.9,17.16" /><path
         id="path112"
         style="fill:#ff1200;fill-opacity:1;fill-rule:nonzero;stroke:none"
         d="m 7277.86,860.039 v 168.611 c -18.75,2.22 -37.5,4.42 -56.25,6.6 V 866.641 c 18.75,-2.192 37.5,-4.379 56.25,-6.602 m -28.55,-56.867 -9,11.949 c -12.24,1.43 -24.47,2.848 -36.71,4.27 -10.42,10.488 -20.85,20.988 -31.27,31.48 V 1062.2 c 10.54,8.15 21.07,16.31 31.6,24.45 30.54,-3.52 61.07,-7.11 91.6,-10.74 10.58,-10.63 21.17,-21.26 31.76,-31.9 V 832.859 c -10.25,-7.781 -20.5,-15.57 -30.75,-23.371 3.17,-4.34 6.34,-8.699 9.51,-13.039 -18.91,2.262 -37.83,4.5 -56.74,6.723" /><path
         id="path114"
         style="fill:#ff1200;fill-opacity:1;fill-rule:nonzero;stroke:none"
         d="m 7518.84,809.039 c -10.76,-7.969 -21.51,-15.961 -32.28,-23.949 -29.93,3.801 -59.86,7.551 -89.8,11.238 -10.53,10.602 -21.05,21.192 -31.58,31.774 v 190.058 c -4.7,0.57 -9.4,1.14 -14.1,1.71 v 49.36 c 25.82,-3.14 51.63,-6.31 77.43,-9.53 v -49.35 c -4.7,0.58 -9.4,1.17 -14.09,1.75 V 843.48 c 18.39,-2.269 36.78,-4.582 55.17,-6.902 v 168.612 c -4.74,0.61 -9.49,1.2 -14.24,1.8 v 49.35 c 25.86,-3.25 51.72,-6.54 77.57,-9.87 v -49.349 c -4.69,0.598 -9.38,1.207 -14.08,1.801 V 809.039" /><path
         id="path116"
         style="fill:#ff1200;fill-opacity:1;fill-rule:nonzero;stroke:none"
         d="m 7556.69,776.09 v 49.34 c 4.7,-0.61 9.39,-1.219 14.09,-1.84 v 168.621 c -4.7,0.609 -9.39,1.219 -14.09,1.828 v 49.351 c 25.85,-3.35 51.7,-6.74 77.55,-10.18 v -49.358 c -4.7,0.628 -9.4,1.238 -14.08,1.867 v -168.61 c 4.69,-0.629 9.38,-1.238 14.08,-1.871 v -49.34 c -25.85,3.442 -51.7,6.84 -77.55,10.192" /><path
         id="path118"
         style="fill:#ff1200;fill-opacity:1;fill-rule:nonzero;stroke:none"
         d="m 7771.29,887.309 v 77.929 c -16.68,2.313 -33.35,4.614 -50.03,6.883 v -77.93 c 16.68,-2.269 33.35,-4.57 50.03,-6.882 m 49.16,-27.778 c -10.62,-7.98 -21.24,-15.972 -31.86,-23.961 -22.44,3.129 -44.89,6.219 -67.33,9.289 v -41.347 c 4.75,-0.653 9.5,-1.301 14.25,-1.953 v -49.34 c -25.83,3.551 -51.67,7.051 -77.51,10.511 v 49.34 c 4.69,-0.629 9.38,-1.261 14.07,-1.898 v 168.609 c -4.69,0.641 -9.38,1.27 -14.07,1.899 v 49.35 c 43.54,-5.83 87.07,-11.77 130.59,-17.84 10.62,-10.9 21.24,-21.792 31.86,-32.702 V 859.531" /><path
         id="path120"
         style="fill:#ff1200;fill-opacity:1;fill-rule:nonzero;stroke:none"
         d="m 7980.09,717.449 v 49.34 c 4.52,-0.668 9.04,-1.328 13.55,-2.008 v 101.25 c -14.28,-28.511 -28.57,-57.051 -42.86,-85.59 -14.23,32.7 -28.46,65.399 -42.69,98.079 V 777.27 c 4.52,-0.649 9.03,-1.29 13.55,-1.95 v -49.332 c -25.81,3.731 -51.63,7.434 -77.45,11.082 v 49.34 c 4.91,-0.699 9.83,-1.39 14.74,-2.09 v 168.61 c -4.75,0.672 -9.49,1.351 -14.23,2.019 v 49.361 c 21.13,-3 42.26,-6.021 63.39,-9.072 14.23,-32.679 28.46,-65.379 42.69,-98.078 14.29,28.539 28.58,57.078 42.86,85.59 21.13,-3.109 42.24,-6.262 63.35,-9.43 v -49.359 l -14.06,2.109 V 757.461 c 4.87,-0.731 9.73,-1.473 14.59,-2.191 v -49.329 c -25.81,3.868 -51.62,7.707 -77.43,11.508" /><path
         id="path122"
         style="fill:#ff1200;fill-opacity:1;fill-rule:nonzero;stroke:none"
         d="m 8081.23,702.359 v 49.34 c 4.69,-0.711 9.37,-1.418 14.05,-2.129 v 168.61 c -4.68,0.711 -9.36,1.429 -14.05,2.129 v 49.351 c 51.76,-7.832 103.5,-15.82 155.21,-23.98 v -70.961 c -16.34,2.59 -32.7,5.152 -49.07,7.703 v 21.598 c -14.32,2.23 -28.66,4.449 -43,6.652 v -59.551 c 22.42,-3.449 44.82,-6.922 67.21,-10.43 V 791.18 c -22.39,3.5 -44.79,6.98 -67.21,10.429 v -59.55 c 14.34,-2.2 28.68,-4.43 43,-6.649 v 21.621 c 16.37,-2.551 32.73,-5.109 49.07,-7.703 v -70.949 c -51.71,8.16 -103.45,16.152 -155.21,23.98" /><path
         id="path124"
         style="fill:#ff1200;fill-opacity:1;fill-rule:nonzero;stroke:none"
         d="m 8376.86,655.82 c -17.87,49.602 -35.74,99.168 -53.61,148.731 v -90.68 c 4.73,-0.762 9.47,-1.543 14.2,-2.301 v -49.332 c -25.77,4.172 -51.53,8.293 -77.3,12.391 v 49.332 c 4.74,-0.75 9.46,-1.5 14.2,-2.262 v 168.61 c -4.69,0.75 -9.37,1.5 -14.04,2.242 v 49.347 c 22.22,-3.519 44.44,-7.078 66.66,-10.668 17.93,-49.628 35.86,-99.289 53.78,-148.949 v 90.848 c -4.74,0.781 -9.48,1.562 -14.21,2.332 v 49.348 c 25.7,-4.2 51.39,-8.418 77.11,-12.7 V 862.75 c -4.74,0.789 -9.48,1.578 -14.21,2.371 V 647.172 c -17.52,2.898 -35.05,5.777 -52.58,8.648" /><path
         id="path126"
         style="fill:#ff1200;fill-opacity:1;fill-rule:nonzero;stroke:none"
         d="m 8592.84,837.48 c -4.55,0.79 -9.11,1.571 -13.67,2.348 V 671.219 c 4.68,-0.797 9.34,-1.61 14.02,-2.41 v -49.34 c -25.73,4.441 -51.46,8.84 -77.21,13.203 V 682 c 4.68,-0.789 9.35,-1.578 14.03,-2.371 v 168.609 c -4.56,0.774 -9.13,1.543 -13.69,2.321 v -21.61 c -16.34,2.781 -32.67,5.52 -49.01,8.262 v 70.949 c 58.2,-9.73 116.38,-19.672 174.52,-29.82 v -70.961 c -16.32,2.851 -32.65,5.691 -48.99,8.5 v 21.601" /></g></g></svg>